<svg xmlns="http://www.w3.org/2000/svg" xmlns:xlink="http://www.w3.org/1999/xlink" xml:space="preserve" version="1.1" style="shape-rendering:geometricPrecision;text-rendering:geometricPrecision;image-rendering:optimizeQuality;" viewBox="0 0 284 240" x="0px" y="0px" fill-rule="evenodd" clip-rule="evenodd"><defs><style type="text/css">
   
    .fil0 {fill:black;fill-rule:nonzero}
   
  </style></defs><g><path class="fil0" d="M245 147l-141 16c-17,2 -9,18 1,18l146 0c10,0 10,15 0,15l-146 0c-25,0 -33,-23 -24,-37l-39 -142 -34 0c-11,0 -11,-17 0,-17l40 0c5,0 8,3 9,6l9 33 200 0c13,0 20,7 17,17l-17 63c-5,20 -4,26 -21,28z"/><path class="fil0" d="M122 201c10,0 18,8 18,18 0,10 -8,19 -18,19 -10,0 -18,-9 -18,-19 0,-10 8,-18 18,-18zm0 13c-3,0 -6,2 -6,5 0,3 3,6 6,6 3,0 6,-3 6,-6 0,-3 -3,-5 -6,-5z"/><path class="fil0" d="M221 201c10,0 18,8 18,18 0,10 -8,19 -18,19 -10,0 -18,-9 -18,-19 0,-10 8,-18 18,-18zm0 13c-3,0 -6,2 -6,5 0,3 3,6 6,6 3,0 5,-3 5,-6 0,-3 -2,-5 -5,-5z"/></g></svg>